<svg width="12" height="12" viewBox="0 0 12 12" fill="none" xmlns="http://www.w3.org/2000/svg">
<path fill-rule="evenodd" clip-rule="evenodd" d="M6.97445 6.00259L10.798 2.18074C11.0673 1.90972 11.0673 1.47126 10.798 1.20197C10.5287 0.932677 10.0903 0.932677 9.82617 1.20197L6.00259 5.02555L2.18074 1.20197C1.90972 0.932677 1.47126 0.932677 1.20197 1.20197C0.932677 1.47126 0.932677 1.90972 1.20197 2.18074L5.02555 6.00259L1.20197 9.82617C0.932677 10.0903 0.932677 10.5287 1.20197 10.798C1.47126 11.0673 1.90972 11.0673 2.18074 10.798L6.00259 6.97445L9.82617 10.798C10.0903 11.0673 10.5287 11.0673 10.798 10.798C11.0673 10.5287 11.0673 10.0903 10.798 9.82617L6.97445 6.00259Z" fill="#E7E7E9" stroke="#E7E7E9" stroke-width="0.5"/>
</svg>
