<svg width="11" height="7" viewBox="0 0 11 7" xmlns="http://www.w3.org/2000/svg">
<path d="M5.92778 5.94513L10.8289 1.31609C10.9389 1.20902 11 1.06614 11 0.913733C11 0.761322 10.9389 0.618444 10.8289 0.511378L10.4622 0.1705C10.23 -0.0513333 9.85111 -0.0513333 9.61889 0.1705L5.5 4.05766L1.38111 0.166222C1.27111 0.0591556 1.12444 0 0.965556 0C0.794444 0 0.647778 0.0591556 0.537778 0.166222L0.171111 0.5071C0.0611111 0.614289 0 0.757044 0 0.909456C0 1.06187 0.0611111 1.20474 0.171111 1.31181L5.07222 5.94513C5.19444 6.05257 5.34111 6.11148 5.5 6.11111C5.65889 6.11148 5.81778 6.05257 5.92778 5.94513Z"/>
</svg>
